<?xml version="1.0" standalone="no"?>
<!DOCTYPE svg PUBLIC "-//W3C//DTD SVG 20010904//EN"
 "http://www.w3.org/TR/2001/REC-SVG-20010904/DTD/svg10.dtd">
<svg version="1.0" xmlns="http://www.w3.org/2000/svg"
 width="512.000000pt" height="512.000000pt" viewBox="0 0 512.000000 512.000000"
 preserveAspectRatio="xMidYMid meet">
<metadata>
Created by potrace 1.16, written by Peter Selinger 2001-2019
</metadata>
<g transform="translate(0.000000,512.000000) scale(0.100000,-0.100000)"
fill="#000000" stroke="none">
<path d="M2035 5102 c-79 -27 -138 -66 -198 -131 -60 -65 -79 -108 -153 -333
l-38 -117 -506 -3 -505 -3 -70 -34 c-92 -45 -171 -124 -216 -216 l-34 -70 -3
-245 c-3 -241 -3 -246 19 -274 47 -60 -103 -56 2235 -56 2118 0 2147 0 2179
20 63 39 67 58 63 320 l-3 235 -34 70 c-21 43 -56 92 -90 126 -34 34 -83 69
-126 90 l-70 34 -505 3 -506 3 -48 147 c-26 81 -62 175 -78 209 -39 81 -126
164 -215 206 l-68 32 -490 2 c-445 3 -495 1 -540 -15z m970 -303 c17 -10 38
-26 48 -36 15 -17 87 -211 87 -235 0 -4 -261 -8 -580 -8 -319 0 -580 4 -580 8
0 24 72 218 87 234 49 55 70 57 513 55 346 -2 399 -4 425 -18z"/>
<path d="M645 3253 c3 -27 57 -678 120 -1448 64 -770 120 -1422 125 -1449 33
-159 150 -290 302 -338 57 -17 123 -18 1368 -18 1276 0 1309 0 1372 20 148 46
265 178 298 336 5 27 61 679 125 1449 63 770 117 1421 120 1448 l6 47 -1921 0
-1921 0 6 -47z m1092 -283 c18 -10 40 -34 50 -52 17 -31 18 -92 18 -1118 0
-1026 -1 -1087 -18 -1118 -53 -96 -201 -96 -254 0 -17 31 -18 92 -18 1118 0
1026 1 1087 18 1118 25 45 72 72 127 72 27 0 58 -8 77 -20z m900 0 c18 -10 40
-34 50 -52 17 -31 18 -92 18 -1118 0 -1026 -1 -1087 -18 -1118 -53 -96 -201
-96 -254 0 -17 31 -18 92 -18 1118 0 1026 1 1087 18 1118 25 45 72 72 127 72
27 0 58 -8 77 -20z m895 3 c16 -10 39 -34 51 -53 l22 -35 0 -1085 c0 -1026 -1
-1087 -18 -1118 -53 -96 -201 -96 -254 0 -17 31 -18 92 -18 1118 0 1026 1
1087 18 1118 36 67 133 93 199 55z"/>
</g>
</svg>
